<svg width="0" height="0" class="hidden">
    <symbol xmlns="http://www.w3.org/2000/svg" viewBox="0 0 149 46" id="logo-menu">
        <path d="M.613 45V.566h7.11V45H.613zM10.96 24.941v-6.918h4.253c3.09 0 4.76-1.503 5.014-4.507v-.762c-.296-3.343-1.967-5.1-5.014-5.269H10.96V.566h4.824C23.486.693 27.358 4.714 27.4 12.627c0 6.136-1.946 9.966-5.84 11.49-1.607.55-3.533.824-5.776.824H10.96zM31.019 45V.566h23.105V7.55H38.128v11.806h10.03v7.11h-10.03v11.49h15.996V45H31.019zm27.548 0l8.38-37.26h.951l2.92 13.456L65.55 45h-6.983zm11.744-6.348l1.46-6.919h4.76L69.676.566h6.982L86.878 45h-7.046l-1.396-6.348H70.31zM90.75 33.51c0 2.455.91 4.846 2.73 7.174 2.454 3.047 5.733 4.591 9.838 4.633v-7.045c-2.496 0-4.21-1.1-5.141-3.301-.254-.593-.381-1.08-.381-1.46V12.119c0-1.142.529-2.243 1.587-3.3 1.1-.974 2.412-1.482 3.935-1.524V.249c-4.781 0-8.379 2.031-10.79 6.094-1.186 1.989-1.778 3.914-1.778 5.776v21.392zm15.806 11.807c3.343 0 6.242-1.312 8.696-3.935 2.116-2.328 3.174-4.972 3.174-7.935l-6.856-1.65c0 .465-.021.762-.063.888 0 .89-.106 1.65-.318 2.286a4.686 4.686 0 01-1.65 2.094c-.762.55-1.46.89-2.095 1.016l-.888.19v7.046zm0-38.022l1.65.508c1.439.72 2.433 1.756 2.983 3.11.212.635.318 1.354.318 2.158v.952l6.919-1.777c0-3.258-1.354-6.157-4.063-8.696-2.412-2.2-5.014-3.301-7.807-3.301v7.046zM122.552 45V.566h7.109v18.599h4.19v6.919h-4.19V45h-7.109zm14.663-18.916v-6.919h4.189V.566h7.11V45h-7.11V26.084h-4.189z"></path>
    </symbol>

    <symbol aria-hidden="true" data-prefix="fab" data-icon="instagram" xmlns="http://www.w3.org/2000/svg" viewBox="0 0 448 512" id="instagram">
        <path d="M224.1 141c-63.6 0-114.9 51.3-114.9 114.9s51.3 114.9 114.9 114.9S339 319.5 339 255.9 287.7 141 224.1 141zm0 189.6c-41.1 0-74.7-33.5-74.7-74.7s33.5-74.7 74.7-74.7 74.7 33.5 74.7 74.7-33.6 74.7-74.7 74.7zm146.4-194.3c0 14.9-12 26.8-26.8 26.8-14.9 0-26.8-12-26.8-26.8s12-26.8 26.8-26.8 26.8 12 26.8 26.8zm76.1 27.2c-1.7-35.9-9.9-67.7-36.2-93.9-26.2-26.2-58-34.4-93.9-36.2-37-2.1-147.9-2.1-184.9 0-35.8 1.7-67.6 9.9-93.9 36.1s-34.4 58-36.2 93.9c-2.1 37-2.1 147.9 0 184.9 1.7 35.9 9.9 67.7 36.2 93.9s58 34.4 93.9 36.2c37 2.1 147.9 2.1 184.9 0 35.9-1.7 67.7-9.9 93.9-36.2 26.2-26.2 34.4-58 36.2-93.9 2.1-37 2.1-147.8 0-184.8zM398.8 388c-7.8 19.6-22.9 34.7-42.6 42.6-29.5 11.7-99.5 9-132.1 9s-102.7 2.6-132.1-9c-19.6-7.8-34.7-22.9-42.6-42.6-11.7-29.5-9-99.5-9-132.1s-2.6-102.7 9-132.1c7.8-19.6 22.9-34.7 42.6-42.6 29.5-11.7 99.5-9 132.1-9s102.7-2.6 132.1 9c19.6 7.8 34.7 22.9 42.6 42.6 11.7 29.5 9 99.5 9 132.1s2.7 102.7-9 132.1z"></path>
    </symbol>

    <symbol xmlns="http://www.w3.org/2000/svg" viewBox="0 0 17 17" id="telegram">
        <g clip-path="url(#clip0)">
            <path d="M8.39 16.78c4.626 0 8.39-3.764 8.39-8.39C16.78 3.764 13.016 0 8.39 0 3.764 0 0 3.764 0 8.39c0 4.626 3.764 8.39 8.39 8.39zm0-15.731c4.048 0 7.341 3.293 7.341 7.341s-3.293 7.341-7.341 7.341-7.341-3.293-7.341-7.341S4.342 1.049 8.39 1.049z"></path>
            <path d="M5.52 9.897l1.097-.476-.308.308a.525.525 0 00-.154.37v2.053c0 .47.568.697.895.37l1.1-1.1 2.399 1.199a.524.524 0 00.75-.376l1.369-7.523a.525.525 0 00-.708-.583L3.07 7.62a.525.525 0 00-.092.93L5.03 9.86a.523.523 0 00.49.038zm5.948-4.438l-1.075 5.912-2.111-1.056a.523.523 0 00-.605.1l-.473.472v-.569l2.103-2.102c.407-.408-.051-1.08-.58-.852L5.359 8.826l-.947-.604 7.056-2.763z"></path>
        </g>
        <defs>
            <clipPath id="clip0">
                <path d="M0 0h16.78v16.78H0z"></path>
            </clipPath>
        </defs>
    </symbol>

    <symbol fill="transparent" xmlns="http://www.w3.org/2000/svg" viewBox="0 0 320 343" id="logo">
        <path stroke="#fff" stroke-width="4" d="M2 2.797h316v337.728H2z"></path>
        <path d="M87.375 145.633h5.438v-43.75h-5.438v43.75zm8.563-19.563h6.75c5.458-.041 8.874-2.125 10.25-6.25.541-1.666.812-3.645.812-5.937 0-7.625-3.438-11.625-10.312-12h-7.5v5.25h5.874c4.209.083 6.334 2.333 6.376 6.75-.084 4.542-2.188 6.833-6.313 6.875h-5.938v5.312zm21.5 19.563v-43.75h22.75v5.375h-17.313v13.875h11.437v5.437h-11.437v13.688h17.313v5.375h-22.75zm27.124 0l8.313-36.938h1l2.125 9.688-6.062 27.25h-5.376zm10-7l1.188-5.313h6.688l-6.938-31.375h5.438l9.874 43.688h-5.437l-1.563-7h-9.25zm20.25-4.313c0 2.417.896 4.771 2.688 7.063 2.417 3 5.667 4.521 9.75 4.562v-5.375c-2.875 0-4.958-1.27-6.25-3.812-.458-.917-.688-1.729-.688-2.438v-21.062c0-1.458.626-2.854 1.876-4.188 1.374-1.375 3.062-2.083 5.062-2.125v-5.375c-4.75-.041-8.292 1.917-10.625 5.875-1.208 2.042-1.813 3.98-1.813 5.813v21.062zm15.5 11.625c3.334 0 6.188-1.27 8.563-3.812 2.125-2.292 3.187-4.917 3.187-7.875l-5.187-1.25c0 .458-.021.792-.063 1-.083.958-.208 1.667-.374 2.125a5.574 5.574 0 01-2.126 2.937c-1 .75-1.916 1.188-2.75 1.313l-1.25.187v5.375zm0-39l1.813.438c2.083.875 3.521 2.333 4.313 4.375.166.5.291 1.167.374 2v1l5.25-1.375c0-3.167-1.312-6-3.937-8.5-2.417-2.208-5.021-3.313-7.813-3.313v5.375zm16.188 38.688v-43.75h5.438v19.062h5.624v5.313h-5.624v19.375H206.5zm14.188-19.375v-5.313h5.562v-19.062h5.5v43.75h-5.5v-19.375h-5.562zm-87.333 66.712c-.44.337-.997.572-1.672.704a11.22 11.22 0 01-2.156.198 7.217 7.217 0 01-2.596-.462 5.803 5.803 0 01-2.112-1.452c-.601-.646-1.078-1.467-1.43-2.464-.352-1.012-.528-2.208-.528-3.586 0-1.438.191-2.655.572-3.652.396-1.012.909-1.834 1.54-2.464a5.947 5.947 0 012.156-1.408 6.904 6.904 0 012.42-.44c.88 0 1.599.051 2.156.154a6.473 6.473 0 011.43.374l-.44 1.606c-.704-.338-1.709-.506-3.014-.506-.601 0-1.195.11-1.782.33a4.173 4.173 0 00-1.584 1.078c-.455.498-.821 1.151-1.1 1.958-.279.806-.418 1.796-.418 2.97 0 1.056.132 1.98.396 2.772.264.792.623 1.452 1.078 1.98a4.57 4.57 0 001.628 1.188 5.247 5.247 0 002.046.396c.66 0 1.232-.066 1.716-.198.499-.132.917-.301 1.254-.506l.44 1.43zm1.494-7.062c0-2.567.543-4.532 1.628-5.896 1.086-1.379 2.633-2.068 4.642-2.068 1.086 0 2.024.19 2.816.572a5.145 5.145 0 011.958 1.628c.528.689.917 1.525 1.166 2.508.25.968.374 2.053.374 3.256 0 2.566-.55 4.539-1.65 5.918-1.085 1.364-2.64 2.046-4.664 2.046-1.07 0-2.002-.191-2.794-.572a5.482 5.482 0 01-1.958-1.606c-.513-.704-.894-1.54-1.144-2.508-.249-.983-.374-2.076-.374-3.278zm1.936 0c0 .85.081 1.657.242 2.42.176.762.44 1.437.792 2.024.352.572.8 1.034 1.342 1.386.558.337 1.21.506 1.958.506 1.364 0 2.435-.514 3.212-1.54.778-1.042 1.166-2.64 1.166-4.796 0-.836-.088-1.636-.264-2.398-.161-.778-.425-1.452-.792-2.024a3.972 3.972 0 00-1.364-1.386c-.542-.352-1.195-.528-1.958-.528-1.349 0-2.412.52-3.19 1.562-.762 1.026-1.144 2.618-1.144 4.774zm22.849 7.7h-9.108v-15.4h1.826v13.772h7.282v1.628zm.159-7.7c0-2.567.542-4.532 1.628-5.896 1.085-1.379 2.632-2.068 4.642-2.068 1.085 0 2.024.19 2.816.572a5.152 5.152 0 011.958 1.628c.528.689.916 1.525 1.166 2.508.249.968.374 2.053.374 3.256 0 2.566-.55 4.539-1.65 5.918-1.086 1.364-2.64 2.046-4.664 2.046-1.071 0-2.002-.191-2.794-.572a5.474 5.474 0 01-1.958-1.606c-.514-.704-.895-1.54-1.144-2.508-.25-.983-.374-2.076-.374-3.278zm1.936 0c0 .85.08 1.657.242 2.42.176.762.44 1.437.792 2.024a4.328 4.328 0 001.342 1.386c.557.337 1.21.506 1.958.506 1.364 0 2.434-.514 3.212-1.54.777-1.042 1.166-2.64 1.166-4.796 0-.836-.088-1.636-.264-2.398-.162-.778-.426-1.452-.792-2.024a3.98 3.98 0 00-1.364-1.386c-.543-.352-1.196-.528-1.958-.528-1.35 0-2.413.52-3.19 1.562-.763 1.026-1.144 2.618-1.144 4.774zm13.741-7.546a19.04 19.04 0 011.914-.242c.733-.059 1.4-.088 2.002-.088.674 0 1.312.073 1.914.22a4.333 4.333 0 011.606.726c.469.337.843.777 1.122 1.32.278.542.418 1.202.418 1.98 0 1.202-.33 2.178-.99 2.926-.66.748-1.496 1.246-2.508 1.496l1.056.814 3.828 6.094h-2.134l-4.246-6.644-2.156-.33v6.974h-1.826v-15.246zm3.96 1.254h-.594c-.206 0-.404.007-.594.022-.191.014-.374.029-.55.044a2.076 2.076 0 00-.396.066v5.676h1.716c1.012 0 1.848-.25 2.508-.748.66-.499.99-1.276.99-2.332 0-.792-.272-1.445-.814-1.958-.543-.514-1.298-.77-2.266-.77zm16.076 10.076c0-.616-.184-1.115-.55-1.496a5.11 5.11 0 00-1.386-1.034 15.546 15.546 0 00-1.782-.858 10.528 10.528 0 01-1.804-.946 5.332 5.332 0 01-1.364-1.386c-.367-.558-.55-1.262-.55-2.112 0-1.203.418-2.156 1.254-2.86.836-.704 2.024-1.056 3.564-1.056.894 0 1.708.066 2.442.198.733.132 1.305.3 1.716.506l-.55 1.606c-.338-.162-.836-.316-1.496-.462-.646-.147-1.379-.22-2.2-.22-.968 0-1.694.22-2.178.66-.484.425-.726.931-.726 1.518 0 .572.183 1.048.55 1.43.366.381.821.726 1.364 1.034.557.293 1.158.586 1.804.88a10.11 10.11 0 011.782 1.034 5.192 5.192 0 011.386 1.386c.366.542.55 1.217.55 2.024 0 .66-.118 1.254-.352 1.782-.235.528-.58.982-1.034 1.364-.455.381-1.005.674-1.65.88-.646.205-1.379.308-2.2.308-1.1 0-2.01-.088-2.728-.264-.719-.162-1.276-.345-1.672-.55l.616-1.65c.337.19.836.381 1.496.572.66.176 1.4.264 2.222.264a6.73 6.73 0 001.364-.132 3.425 3.425 0 001.1-.462c.308-.22.55-.492.726-.814.19-.323.286-.704.286-1.144zm-59.259 18.144h-4.796v13.772h-1.826v-13.772h-4.796v-1.628h11.418v1.628zm5.389 7.656l-5.082-9.284h2.134l3.608 6.732.374 1.342h.022l.396-1.386 3.454-6.688h1.958l-5.038 9.262v6.138h-1.826v-6.116zm9.298-9.284h1.826v15.4h-1.826v-15.4zm5.412 8.25h5.324v1.628h-5.324v-1.628zm8.5-8.25c.278-.044.586-.074.924-.088.352-.03.711-.044 1.078-.044.381-.015.748-.022 1.1-.022.366-.015.704-.022 1.012-.022 1.232 0 2.295.19 3.19.572.909.381 1.657.916 2.244 1.606.586.674 1.019 1.488 1.298 2.442.293.953.44 2.002.44 3.146 0 1.041-.14 2.046-.418 3.014a7.218 7.218 0 01-1.276 2.552c-.587.733-1.35 1.327-2.288 1.782-.939.44-2.076.66-3.41.66-.235 0-.543-.008-.924-.022-.367 0-.748-.015-1.144-.044a296.8 296.8 0 01-1.1-.044 5.445 5.445 0 01-.726-.066v-15.422zm4.158 1.452h-.638c-.22 0-.44.007-.66.022-.22.014-.426.029-.616.044a6.623 6.623 0 00-.418.044v12.32c.073.014.212.029.418.044.205 0 .418.007.638.022.22 0 .432.007.638.022h.418c1.026 0 1.884-.176 2.574-.528.704-.352 1.261-.822 1.672-1.408a5.753 5.753 0 00.902-2.046c.176-.778.264-1.577.264-2.398a9.83 9.83 0 00-.242-2.156 5.687 5.687 0 00-.836-1.98 4.469 4.469 0 00-1.606-1.43c-.66-.382-1.496-.572-2.508-.572zm10.654-1.452h1.826v15.4h-1.826v-15.4zm5.984 0h8.382v1.628h-6.556v5.038h6.006v1.628h-6.006v5.478h6.666v1.628h-8.492v-15.4z" fill="#fff"></path>
        <path stroke="#fff" stroke-width="2" d="M71 170.608h179"></path>
    </symbol>

    <symbol aria-hidden="true" data-prefix="fas" data-icon="times" xmlns="http://www.w3.org/2000/svg" viewBox="0 0 352 512" id="close">
        <path d="M242.72 256l100.07-100.07c12.28-12.28 12.28-32.19 0-44.48l-22.24-22.24c-12.28-12.28-32.19-12.28-44.48 0L176 189.28 75.93 89.21c-12.28-12.28-32.19-12.28-44.48 0L9.21 111.45c-12.28 12.28-12.28 32.19 0 44.48L109.28 256 9.21 356.07c-12.28 12.28-12.28 32.19 0 44.48l22.24 22.24c12.28 12.28 32.2 12.28 44.48 0L176 322.72l100.07 100.07c12.28 12.28 32.2 12.28 44.48 0l22.24-22.24c12.28-12.28 12.28-32.19 0-44.48L242.72 256z"></path>
    </symbol>

    <symbol fill="none" xmlns="http://www.w3.org/2000/svg" viewBox="0 0 349 313" id="logo-delivery">
        <path stroke="#fff" stroke-width="4" d="M17 2h316v308.099H17z"></path>
        <path stroke="#fff" stroke-width="2" d="M85 171h179"></path>
        <path d="M88.339 155.13c-.36 0-.65-.11-.87-.33-.2-.2-.3-.48-.3-.84v-4.98c0-.36.1-.64.3-.84.22-.22.51-.33.87-.33h1.02l8.43-20.43c.24-.54.61-.81 1.11-.81.54 0 .92.27 1.14.81l8.43 20.43h1.11c.36 0 .64.11.84.33.22.2.33.48.33.84v4.98c0 .36-.11.64-.33.84-.2.22-.48.33-.84.33s-.65-.11-.87-.33c-.2-.2-.3-.48-.3-.84V150h-18.9v3.96c0 .36-.11.64-.33.84-.2.22-.48.33-.84.33zm3.42-7.32h14.37l-7.23-17.67-7.14 17.67zm33.568 2.49c-1.74 0-3.34-.3-4.8-.9-1.46-.6-2.73-1.44-3.81-2.52a11.756 11.756 0 01-2.49-3.81c-.58-1.46-.87-3.06-.87-4.8 0-1.72.29-3.31.87-4.77.6-1.46 1.43-2.73 2.49-3.81 1.08-1.08 2.35-1.92 3.81-2.52 1.46-.6 3.06-.9 4.8-.9 1.72 0 3.31.3 4.77.9 1.46.6 2.73 1.44 3.81 2.52a11.14 11.14 0 012.49 3.81c.6 1.46.9 3.05.9 4.77 0 1.74-.3 3.34-.9 4.8a11.14 11.14 0 01-2.49 3.81 11.516 11.516 0 01-3.81 2.52c-1.46.6-3.05.9-4.77.9zm0-2.22c1.38 0 2.66-.24 3.84-.72a9.3 9.3 0 003.06-2.07c.88-.9 1.56-1.94 2.04-3.12.48-1.2.72-2.5.72-3.9 0-1.38-.24-2.66-.72-3.84a9.179 9.179 0 00-2.04-3.12c-.86-.9-1.88-1.59-3.06-2.07-1.18-.5-2.46-.75-3.84-.75-1.4 0-2.69.25-3.87.75a9.034 9.034 0 00-3.09 2.07c-.86.88-1.53 1.92-2.01 3.12-.48 1.18-.72 2.46-.72 3.84 0 1.4.24 2.7.72 3.9a9.835 9.835 0 002.01 3.12c.88.88 1.91 1.57 3.09 2.07 1.18.48 2.47.72 3.87.72zm26.741 2.22c-1.62 0-3.14-.31-4.56-.93-1.4-.62-2.64-1.48-3.72-2.58-1.06-1.12-1.89-2.4-2.49-3.84-.6-1.46-.9-3.02-.9-4.68 0-1.64.29-3.18.87-4.62.6-1.46 1.43-2.74 2.49-3.84 1.08-1.1 2.32-1.96 3.72-2.58 1.42-.64 2.95-.96 4.59-.96 1.44 0 2.75.21 3.93.63 1.18.42 2.32 1.09 3.42 2.01.26.2.37.46.33.78-.04.3-.19.51-.45.63-.06.24-.25.39-.57.45-.3.06-.6-.03-.9-.27a7.722 7.722 0 00-2.55-1.5c-.92-.34-1.99-.51-3.21-.51-1.3 0-2.52.26-3.66.78a9.76 9.76 0 00-2.97 2.13c-.86.9-1.54 1.94-2.04 3.12a9.856 9.856 0 00-.72 3.75c0 1.36.24 2.63.72 3.81.5 1.18 1.18 2.22 2.04 3.12.86.9 1.85 1.61 2.97 2.13 1.14.5 2.36.75 3.66.75 2.16 0 4.13-.7 5.91-2.1.36-.28.74-.32 1.14-.12.42.2.63.54.63 1.02 0 .32-.11.6-.33.84-1.02.94-2.16 1.61-3.42 2.01-1.26.38-2.57.57-3.93.57zm19.425-.3c-.32 0-.6-.11-.84-.33-.22-.24-.33-.52-.33-.84V128.7h-7.11c-.32 0-.58-.1-.78-.3-.2-.2-.3-.45-.3-.75 0-.32.1-.58.3-.78.2-.2.46-.3.78-.3h16.59c.32 0 .58.1.78.3.2.2.3.46.3.78 0 .3-.1.55-.3.75-.2.2-.46.3-.78.3h-7.14v20.13c0 .32-.11.6-.33.84-.22.22-.5.33-.84.33zm9.155 0c-.46 0-.79-.19-.99-.57-.2-.38-.22-.75-.06-1.11l8.82-20.94c.22-.54.6-.81 1.14-.81.52 0 .89.27 1.11.81l8.85 20.97c.18.38.15.75-.09 1.11-.22.36-.54.54-.96.54-.54 0-.91-.24-1.11-.72l-1.98-4.86h-11.64l-2.01 4.86c-.1.24-.25.42-.45.54-.18.12-.39.18-.63.18zm3.93-7.59h9.96l-4.98-12.03-4.98 12.03zm19.774 7.59c-.38 0-.7-.1-.96-.3-.24-.22-.36-.51-.36-.87v-21.09c0-.34.11-.62.33-.84.22-.22.5-.33.84-.33h7.29c1.2 0 2.28.26 3.24.78.98.5 1.75 1.19 2.31 2.07.58.88.87 1.9.87 3.06 0 1.08-.29 2.04-.87 2.88-.58.84-1.34 1.48-2.28 1.92 1.34.36 2.42 1.04 3.24 2.04.82.98 1.23 2.23 1.23 3.75 0 1.36-.31 2.56-.93 3.6a6.641 6.641 0 01-2.58 2.46c-1.08.58-2.32.87-3.72.87h-7.65zm1.02-13.65h6.12c1.2 0 2.19-.34 2.97-1.02.78-.68 1.17-1.63 1.17-2.85 0-1.2-.39-2.11-1.17-2.73-.78-.62-1.77-.93-2.97-.93h-6.12v7.53zm0 11.4h6.63c1.44 0 2.62-.42 3.54-1.26.92-.84 1.38-1.98 1.38-3.42 0-1.36-.46-2.44-1.38-3.24-.92-.82-2.1-1.23-3.54-1.23h-6.63v9.15zm19.69 2.25c-.34 0-.62-.11-.84-.33-.22-.22-.33-.5-.33-.84v-21.09c0-.34.11-.62.33-.84.22-.22.5-.33.84-.33.34 0 .62.11.84.33.22.22.33.5.33.84v9.36h3.39l8.16-10.17c.22-.24.49-.36.81-.36.32-.02.59.08.81.3.48.46.49.97.03 1.53l-7.77 9.57 8.64 10.17c.44.52.4 1.04-.12 1.56-.2.22-.47.32-.81.3-.34 0-.61-.12-.81-.36l-8.79-10.44h-3.54v9.63c0 .34-.11.62-.33.84-.22.22-.5.33-.84.33zm18.135 0c-.46 0-.79-.19-.99-.57-.2-.38-.22-.75-.06-1.11l8.82-20.94c.22-.54.6-.81 1.14-.81.52 0 .89.27 1.11.81l8.85 20.97c.18.38.15.75-.09 1.11-.22.36-.54.54-.96.54-.54 0-.91-.24-1.11-.72l-1.98-4.86h-11.64l-2.01 4.86c-.1.24-.25.42-.45.54-.18.12-.39.18-.63.18zm3.93-7.59h9.96l-4.98-12.03-4.98 12.03z" fill="#fff"></path>
    </symbol>
</svg>