<svg width="320" height="342" viewBox="0 0 320 342" fill="none" xmlns="http://www.w3.org/2000/svg">
    <rect x="2" y="2.14551" width="316" height="337.728" stroke="white" stroke-width="4"/>
    <path d="M15.5695 189.532C15.1429 189.532 14.7695 189.385 14.4495 189.092C14.1295 188.798 13.9695 188.425 13.9695 187.972V159.852C13.9695 159.398 14.1295 159.025 14.4495 158.732C14.7695 158.438 15.1429 158.292 15.5695 158.292C16.0229 158.292 16.3829 158.438 16.6495 158.732C16.9429 159.025 17.0895 159.398 17.0895 159.852V184.412L37.0495 158.852C37.3429 158.478 37.7429 158.292 38.2495 158.292C38.7029 158.292 39.0762 158.438 39.3695 158.732C39.6629 159.025 39.8095 159.398 39.8095 159.852V187.972C39.8095 188.425 39.6629 188.798 39.3695 189.092C39.0762 189.385 38.7029 189.532 38.2495 189.532C37.7962 189.532 37.4229 189.385 37.1295 189.092C36.8362 188.798 36.6895 188.425 36.6895 187.972V163.452L16.7295 189.012C16.4629 189.358 16.0762 189.532 15.5695 189.532ZM49.3577 189.532C48.9043 189.532 48.531 189.385 48.2377 189.092C47.9443 188.798 47.7977 188.425 47.7977 187.972V159.852C47.7977 159.398 47.9443 159.025 48.2377 158.732C48.531 158.438 48.9043 158.292 49.3577 158.292C49.811 158.292 50.1843 158.438 50.4777 158.732C50.771 159.025 50.9177 159.398 50.9177 159.852V172.332H70.4377V159.852C70.4377 159.398 70.5843 159.025 70.8777 158.732C71.171 158.438 71.5443 158.292 71.9977 158.292C72.451 158.292 72.8243 158.438 73.1177 158.732C73.411 159.025 73.5577 159.398 73.5577 159.852V187.972C73.5577 188.425 73.411 188.798 73.1177 189.092C72.8243 189.385 72.451 189.532 71.9977 189.532C71.5443 189.532 71.171 189.385 70.8777 189.092C70.5843 188.798 70.4377 188.425 70.4377 187.972V175.132H50.9177V187.972C50.9177 188.425 50.771 188.798 50.4777 189.092C50.1843 189.385 49.811 189.532 49.3577 189.532ZM95.5877 189.932C93.4277 189.932 91.401 189.518 89.5077 188.692C87.641 187.865 85.9877 186.718 84.5477 185.252C83.1343 183.758 82.0277 182.052 81.2277 180.132C80.4277 178.185 80.0277 176.105 80.0277 173.892C80.0277 171.705 80.4143 169.652 81.1877 167.732C81.9877 165.785 83.0943 164.078 84.5077 162.612C85.9477 161.145 87.601 159.998 89.4677 159.172C91.361 158.318 93.401 157.892 95.5877 157.892C97.5077 157.892 99.2543 158.172 100.828 158.732C102.401 159.292 103.921 160.185 105.388 161.412C105.734 161.678 105.881 162.025 105.828 162.452C105.774 162.852 105.574 163.132 105.228 163.292C105.148 163.612 104.894 163.812 104.468 163.892C104.068 163.972 103.668 163.852 103.268 163.532C102.228 162.625 101.094 161.958 99.8677 161.532C98.641 161.078 97.2143 160.852 95.5877 160.852C93.8543 160.852 92.2277 161.198 90.7077 161.892C89.2143 162.585 87.8943 163.532 86.7477 164.732C85.601 165.932 84.6943 167.318 84.0277 168.892C83.3877 170.465 83.0677 172.132 83.0677 173.892C83.0677 175.705 83.3877 177.398 84.0277 178.972C84.6943 180.545 85.601 181.932 86.7477 183.132C87.8943 184.332 89.2143 185.278 90.7077 185.972C92.2277 186.638 93.8543 186.972 95.5877 186.972C98.4677 186.972 101.094 186.038 103.468 184.172C103.948 183.798 104.454 183.745 104.988 184.012C105.548 184.278 105.828 184.732 105.828 185.372C105.828 185.798 105.681 186.172 105.388 186.492C104.028 187.745 102.508 188.638 100.828 189.172C99.1477 189.678 97.401 189.932 95.5877 189.932ZM121.487 189.532C121.06 189.532 120.687 189.385 120.367 189.092C120.074 188.772 119.927 188.398 119.927 187.972V161.132H110.447C110.02 161.132 109.674 160.998 109.407 160.732C109.14 160.465 109.007 160.132 109.007 159.732C109.007 159.305 109.14 158.958 109.407 158.692C109.674 158.425 110.02 158.292 110.447 158.292H132.567C132.994 158.292 133.34 158.425 133.607 158.692C133.874 158.958 134.007 159.305 134.007 159.732C134.007 160.132 133.874 160.465 133.607 160.732C133.34 160.998 132.994 161.132 132.567 161.132H123.047V187.972C123.047 188.398 122.9 188.772 122.607 189.092C122.314 189.385 121.94 189.532 121.487 189.532ZM140.178 189.532C139.725 189.532 139.351 189.385 139.058 189.092C138.765 188.798 138.618 188.425 138.618 187.972V159.852C138.618 159.398 138.765 159.025 139.058 158.732C139.351 158.438 139.725 158.292 140.178 158.292H148.178C150.151 158.292 151.898 158.732 153.418 159.612C154.938 160.465 156.125 161.652 156.978 163.172C157.831 164.692 158.258 166.452 158.258 168.452C158.258 170.398 157.831 172.132 156.978 173.652C156.125 175.145 154.938 176.332 153.418 177.212C151.898 178.065 150.151 178.492 148.178 178.492H141.738V187.972C141.738 188.425 141.591 188.798 141.298 189.092C141.005 189.385 140.631 189.532 140.178 189.532ZM141.738 175.492H148.178C149.538 175.492 150.751 175.198 151.818 174.612C152.885 173.998 153.711 173.158 154.298 172.092C154.911 171.025 155.218 169.812 155.218 168.452C155.218 167.038 154.911 165.798 154.298 164.732C153.711 163.665 152.885 162.825 151.818 162.212C150.751 161.598 149.538 161.292 148.178 161.292H141.738V175.492ZM166.75 189.852C165.523 189.852 164.337 189.452 163.19 188.652C162.79 188.385 162.563 188.065 162.51 187.692C162.457 187.292 162.577 186.918 162.87 186.572C163.43 185.825 164.15 185.732 165.03 186.292C165.59 186.665 166.19 186.852 166.83 186.852C167.63 186.852 168.443 186.492 169.27 185.772C170.097 185.052 170.817 184.025 171.43 182.692L171.87 181.812L159.31 160.612C158.803 159.732 159.003 159.052 159.91 158.572C160.763 158.065 161.443 158.252 161.95 159.132L173.23 178.932L182.47 159.252C182.897 158.345 183.563 158.092 184.47 158.492C185.35 158.892 185.577 159.545 185.15 160.452L174.11 183.932C173.23 185.825 172.15 187.292 170.87 188.332C169.59 189.345 168.217 189.852 166.75 189.852ZM192.756 189.532C192.303 189.532 191.929 189.385 191.636 189.092C191.343 188.798 191.196 188.425 191.196 187.972V159.852C191.196 159.398 191.343 159.025 191.636 158.732C191.929 158.438 192.303 158.292 192.756 158.292C193.209 158.292 193.583 158.438 193.876 158.732C194.169 159.025 194.316 159.398 194.316 159.852V172.332H198.836L209.716 158.772C210.009 158.452 210.369 158.292 210.796 158.292C211.223 158.265 211.583 158.398 211.876 158.692C212.516 159.305 212.529 159.985 211.916 160.732L201.556 173.492L213.076 187.052C213.663 187.745 213.609 188.438 212.916 189.132C212.649 189.425 212.289 189.558 211.836 189.532C211.383 189.532 211.023 189.372 210.756 189.052L199.036 175.132H194.316V187.972C194.316 188.425 194.169 188.798 193.876 189.092C193.583 189.385 193.209 189.532 192.756 189.532ZM245.577 196.372C245.097 196.372 244.71 196.225 244.417 195.932C244.15 195.665 244.017 195.292 244.017 194.812V189.532H220.217C219.764 189.532 219.39 189.385 219.097 189.092C218.804 188.798 218.657 188.425 218.657 187.972V159.852C218.657 159.398 218.804 159.025 219.097 158.732C219.39 158.438 219.764 158.292 220.217 158.292C220.67 158.292 221.044 158.438 221.337 158.732C221.63 159.025 221.777 159.398 221.777 159.852V186.612H239.937V159.852C239.937 159.398 240.084 159.025 240.377 158.732C240.67 158.438 241.044 158.292 241.497 158.292C241.95 158.292 242.324 158.438 242.617 158.732C242.91 159.025 243.057 159.398 243.057 159.852V186.612H245.577C246.057 186.612 246.43 186.758 246.697 187.052C246.99 187.318 247.137 187.692 247.137 188.172V194.812C247.137 195.292 246.99 195.665 246.697 195.932C246.43 196.225 246.057 196.372 245.577 196.372ZM254.124 189.532C253.698 189.532 253.324 189.385 253.004 189.092C252.684 188.798 252.524 188.425 252.524 187.972V159.852C252.524 159.398 252.684 159.025 253.004 158.732C253.324 158.438 253.698 158.292 254.124 158.292C254.578 158.292 254.938 158.438 255.204 158.732C255.498 159.025 255.644 159.398 255.644 159.852V184.412L275.604 158.852C275.898 158.478 276.298 158.292 276.804 158.292C277.258 158.292 277.631 158.438 277.924 158.732C278.218 159.025 278.364 159.398 278.364 159.852V187.972C278.364 188.425 278.218 188.798 277.924 189.092C277.631 189.385 277.258 189.532 276.804 189.532C276.351 189.532 275.978 189.385 275.684 189.092C275.391 188.798 275.244 188.425 275.244 187.972V163.452L255.284 189.012C255.018 189.358 254.631 189.532 254.124 189.532ZM286.992 189.532C286.272 189.532 285.779 189.292 285.512 188.812C285.272 188.332 285.352 187.772 285.752 187.132L292.512 176.572C291.152 176.252 289.939 175.692 288.872 174.892C287.806 174.065 286.952 173.065 286.312 171.892C285.699 170.692 285.392 169.372 285.392 167.932C285.392 166.038 285.819 164.372 286.672 162.932C287.552 161.492 288.752 160.358 290.272 159.532C291.792 158.705 293.539 158.292 295.512 158.292H304.672C305.126 158.292 305.499 158.438 305.792 158.732C306.086 159.025 306.232 159.398 306.232 159.852V187.972C306.232 188.425 306.086 188.798 305.792 189.092C305.499 189.385 305.126 189.532 304.672 189.532C304.219 189.532 303.846 189.385 303.552 189.092C303.259 188.798 303.112 188.425 303.112 187.972V177.292H295.672L288.352 188.732C288.192 188.998 288.006 189.198 287.792 189.332C287.579 189.465 287.312 189.532 286.992 189.532ZM295.512 174.372H303.112V161.292H295.512C293.459 161.292 291.766 161.892 290.432 163.092C289.126 164.292 288.472 165.905 288.472 167.932C288.472 169.878 289.126 171.438 290.432 172.612C291.766 173.785 293.459 174.372 295.512 174.372Z" fill="white"/>
    <line x1="90" y1="210.968" x2="211.125" y2="210.968" stroke="white"/>
</svg>
