<svg width="349" height="313" viewBox="0 0 349 313" fill="none" xmlns="http://www.w3.org/2000/svg">
    <rect x="17" y="2" width="316" height="308.099" stroke="white" stroke-width="4"/>
    <line x1="85" y1="171" x2="264" y2="171" stroke="white" stroke-width="2"/>
    <path d="M88.3389 155.13C87.9789 155.13 87.6889 155.02 87.4689 154.8C87.2689 154.6 87.1689 154.32 87.1689 153.96V148.98C87.1689 148.62 87.2689 148.34 87.4689 148.14C87.6889 147.92 87.9789 147.81 88.3389 147.81H89.3589L97.7889 127.38C98.0289 126.84 98.3989 126.57 98.8989 126.57C99.4389 126.57 99.8189 126.84 100.039 127.38L108.469 147.81H109.579C109.939 147.81 110.219 147.92 110.419 148.14C110.639 148.34 110.749 148.62 110.749 148.98V153.96C110.749 154.32 110.639 154.6 110.419 154.8C110.219 155.02 109.939 155.13 109.579 155.13C109.219 155.13 108.929 155.02 108.709 154.8C108.509 154.6 108.409 154.32 108.409 153.96V150H89.5089V153.96C89.5089 154.32 89.3989 154.6 89.1789 154.8C88.9789 155.02 88.6989 155.13 88.3389 155.13ZM91.7589 147.81H106.129L98.8989 130.14L91.7589 147.81ZM125.327 150.3C123.587 150.3 121.987 150 120.527 149.4C119.067 148.8 117.797 147.96 116.717 146.88C115.657 145.8 114.827 144.53 114.227 143.07C113.647 141.61 113.357 140.01 113.357 138.27C113.357 136.55 113.647 134.96 114.227 133.5C114.827 132.04 115.657 130.77 116.717 129.69C117.797 128.61 119.067 127.77 120.527 127.17C121.987 126.57 123.587 126.27 125.327 126.27C127.047 126.27 128.637 126.57 130.097 127.17C131.557 127.77 132.827 128.61 133.907 129.69C134.987 130.77 135.817 132.04 136.397 133.5C136.997 134.96 137.297 136.55 137.297 138.27C137.297 140.01 136.997 141.61 136.397 143.07C135.817 144.53 134.987 145.8 133.907 146.88C132.827 147.96 131.557 148.8 130.097 149.4C128.637 150 127.047 150.3 125.327 150.3ZM125.327 148.08C126.707 148.08 127.987 147.84 129.167 147.36C130.347 146.86 131.367 146.17 132.227 145.29C133.107 144.39 133.787 143.35 134.267 142.17C134.747 140.97 134.987 139.67 134.987 138.27C134.987 136.89 134.747 135.61 134.267 134.43C133.787 133.23 133.107 132.19 132.227 131.31C131.367 130.41 130.347 129.72 129.167 129.24C127.987 128.74 126.707 128.49 125.327 128.49C123.927 128.49 122.637 128.74 121.457 129.24C120.277 129.72 119.247 130.41 118.367 131.31C117.507 132.19 116.837 133.23 116.357 134.43C115.877 135.61 115.637 136.89 115.637 138.27C115.637 139.67 115.877 140.97 116.357 142.17C116.837 143.35 117.507 144.39 118.367 145.29C119.247 146.17 120.277 146.86 121.457 147.36C122.637 147.84 123.927 148.08 125.327 148.08ZM152.068 150.3C150.448 150.3 148.928 149.99 147.508 149.37C146.108 148.75 144.868 147.89 143.788 146.79C142.728 145.67 141.898 144.39 141.298 142.95C140.698 141.49 140.398 139.93 140.398 138.27C140.398 136.63 140.688 135.09 141.268 133.65C141.868 132.19 142.698 130.91 143.758 129.81C144.838 128.71 146.078 127.85 147.478 127.23C148.898 126.59 150.428 126.27 152.068 126.27C153.508 126.27 154.818 126.48 155.998 126.9C157.178 127.32 158.318 127.99 159.418 128.91C159.678 129.11 159.788 129.37 159.748 129.69C159.708 129.99 159.558 130.2 159.298 130.32C159.238 130.56 159.048 130.71 158.728 130.77C158.428 130.83 158.128 130.74 157.828 130.5C157.048 129.82 156.198 129.32 155.278 129C154.358 128.66 153.288 128.49 152.068 128.49C150.768 128.49 149.548 128.75 148.408 129.27C147.288 129.79 146.298 130.5 145.438 131.4C144.578 132.3 143.898 133.34 143.398 134.52C142.918 135.7 142.678 136.95 142.678 138.27C142.678 139.63 142.918 140.9 143.398 142.08C143.898 143.26 144.578 144.3 145.438 145.2C146.298 146.1 147.288 146.81 148.408 147.33C149.548 147.83 150.768 148.08 152.068 148.08C154.228 148.08 156.198 147.38 157.978 145.98C158.338 145.7 158.718 145.66 159.118 145.86C159.538 146.06 159.748 146.4 159.748 146.88C159.748 147.2 159.638 147.48 159.418 147.72C158.398 148.66 157.258 149.33 155.998 149.73C154.738 150.11 153.428 150.3 152.068 150.3ZM171.493 150C171.173 150 170.893 149.89 170.653 149.67C170.433 149.43 170.323 149.15 170.323 148.83V128.7H163.213C162.893 128.7 162.633 128.6 162.433 128.4C162.233 128.2 162.133 127.95 162.133 127.65C162.133 127.33 162.233 127.07 162.433 126.87C162.633 126.67 162.893 126.57 163.213 126.57H179.803C180.123 126.57 180.383 126.67 180.583 126.87C180.783 127.07 180.883 127.33 180.883 127.65C180.883 127.95 180.783 128.2 180.583 128.4C180.383 128.6 180.123 128.7 179.803 128.7H172.663V148.83C172.663 149.15 172.553 149.43 172.333 149.67C172.113 149.89 171.833 150 171.493 150ZM180.648 150C180.188 150 179.858 149.81 179.658 149.43C179.458 149.05 179.438 148.68 179.598 148.32L188.418 127.38C188.638 126.84 189.018 126.57 189.558 126.57C190.078 126.57 190.448 126.84 190.668 127.38L199.518 148.35C199.698 148.73 199.668 149.1 199.428 149.46C199.208 149.82 198.888 150 198.468 150C197.928 150 197.558 149.76 197.358 149.28L195.378 144.42H183.738L181.728 149.28C181.628 149.52 181.478 149.7 181.278 149.82C181.098 149.94 180.888 150 180.648 150ZM184.578 142.41H194.538L189.558 130.38L184.578 142.41ZM204.352 150C203.972 150 203.652 149.9 203.392 149.7C203.152 149.48 203.032 149.19 203.032 148.83V127.74C203.032 127.4 203.142 127.12 203.362 126.9C203.582 126.68 203.862 126.57 204.202 126.57H211.492C212.692 126.57 213.772 126.83 214.732 127.35C215.712 127.85 216.482 128.54 217.042 129.42C217.622 130.3 217.912 131.32 217.912 132.48C217.912 133.56 217.622 134.52 217.042 135.36C216.462 136.2 215.702 136.84 214.762 137.28C216.102 137.64 217.182 138.32 218.002 139.32C218.822 140.3 219.232 141.55 219.232 143.07C219.232 144.43 218.922 145.63 218.302 146.67C217.682 147.71 216.822 148.53 215.722 149.13C214.642 149.71 213.402 150 212.002 150H204.352ZM205.372 136.35H211.492C212.692 136.35 213.682 136.01 214.462 135.33C215.242 134.65 215.632 133.7 215.632 132.48C215.632 131.28 215.242 130.37 214.462 129.75C213.682 129.13 212.692 128.82 211.492 128.82H205.372V136.35ZM205.372 147.75H212.002C213.442 147.75 214.622 147.33 215.542 146.49C216.462 145.65 216.922 144.51 216.922 143.07C216.922 141.71 216.462 140.63 215.542 139.83C214.622 139.01 213.442 138.6 212.002 138.6H205.372V147.75ZM225.062 150C224.722 150 224.442 149.89 224.222 149.67C224.002 149.45 223.892 149.17 223.892 148.83V127.74C223.892 127.4 224.002 127.12 224.222 126.9C224.442 126.68 224.722 126.57 225.062 126.57C225.402 126.57 225.682 126.68 225.902 126.9C226.122 127.12 226.232 127.4 226.232 127.74V137.1H229.622L237.782 126.93C238.002 126.69 238.272 126.57 238.592 126.57C238.912 126.55 239.182 126.65 239.402 126.87C239.882 127.33 239.892 127.84 239.432 128.4L231.662 137.97L240.302 148.14C240.742 148.66 240.702 149.18 240.182 149.7C239.982 149.92 239.712 150.02 239.372 150C239.032 150 238.762 149.88 238.562 149.64L229.772 139.2H226.232V148.83C226.232 149.17 226.122 149.45 225.902 149.67C225.682 149.89 225.402 150 225.062 150ZM243.197 150C242.737 150 242.407 149.81 242.207 149.43C242.007 149.05 241.987 148.68 242.147 148.32L250.967 127.38C251.187 126.84 251.567 126.57 252.107 126.57C252.627 126.57 252.997 126.84 253.217 127.38L262.067 148.35C262.247 148.73 262.217 149.1 261.977 149.46C261.757 149.82 261.437 150 261.017 150C260.477 150 260.107 149.76 259.907 149.28L257.927 144.42H246.287L244.277 149.28C244.177 149.52 244.027 149.7 243.827 149.82C243.647 149.94 243.437 150 243.197 150ZM247.127 142.41H257.087L252.107 130.38L247.127 142.41Z" fill="white"/>
</svg>
