<svg width="149" height="46" viewBox="0 0 149 46" fill="none" xmlns="http://www.w3.org/2000/svg">
<path d="M0.613281 45V0.566406H7.72266V45H0.613281ZM10.96 24.9414V18.0225H15.2129C18.3021 18.0225 19.9736 16.5202 20.2275 13.5156C20.2275 13.2617 20.2275 13.0078 20.2275 12.7539C19.9313 9.41081 18.2598 7.65462 15.2129 7.48535H10.96V0.566406H15.7842C23.486 0.693359 27.3581 4.71354 27.4004 12.627C27.4004 18.763 25.4538 22.5928 21.5605 24.1162C19.9525 24.6663 18.027 24.9414 15.7842 24.9414C15.6995 24.9414 14.0915 24.9414 10.96 24.9414Z" fill="white"/>
<path d="M31.0186 45V0.566406H54.124V7.54883H38.1279V19.3555H48.1572V26.4648H38.1279V37.9541H54.124V45H31.0186Z" fill="white"/>
<path d="M58.5674 45L66.9463 7.73926H67.8984L70.8184 21.1963L65.5498 45H58.5674ZM70.3105 38.6523L71.7705 31.7334H76.5312L69.6758 0.566406H76.6582L86.8779 45H79.832L78.4355 38.6523H70.3105Z" fill="white"/>
<path d="M90.75 33.5107C90.75 35.9652 91.6598 38.3561 93.4795 40.6836C95.9339 43.7305 99.2135 45.2751 103.318 45.3174V38.2715C100.822 38.2715 99.1077 37.1712 98.1768 34.9707C97.9229 34.3783 97.7959 33.8916 97.7959 33.5107V12.1191C97.7959 10.9766 98.3249 9.8763 99.3828 8.81836C100.483 7.84505 101.795 7.33724 103.318 7.29492V0.249023C98.5365 0.249023 94.9395 2.28027 92.5273 6.34277C91.3424 8.33171 90.75 10.2572 90.75 12.1191V33.5107ZM106.556 45.3174C109.899 45.3174 112.798 44.0055 115.252 41.3818C117.368 39.0544 118.426 36.4095 118.426 33.4473L111.57 31.7969C111.57 32.2624 111.549 32.5586 111.507 32.6855C111.507 33.5742 111.401 34.3359 111.189 34.9707C110.851 35.8171 110.301 36.5153 109.539 37.0654C108.777 37.6156 108.079 37.9541 107.444 38.0811L106.556 38.2715V45.3174ZM106.556 7.29492C106.556 7.29492 107.106 7.46419 108.206 7.80273C109.645 8.52214 110.639 9.55892 111.189 10.9131C111.401 11.5479 111.507 12.2673 111.507 13.0713V14.0234L118.426 12.2461C118.426 8.98763 117.072 6.08887 114.363 3.5498C111.951 1.34928 109.349 0.249023 106.556 0.249023V7.29492Z" fill="white"/>
<path d="M122.552 45V0.566406H129.661V19.165H133.851V26.084H129.661V45H122.552ZM137.215 26.084V19.165H141.404V0.566406H148.514V45H141.404V26.084H137.215Z" fill="white"/>
</svg>
