<svg width="320" height="343" viewBox="0 0 320 343" fill="none" xmlns="http://www.w3.org/2000/svg">
<rect x="2" y="2.79749" width="316" height="337.728" stroke="white" stroke-width="4"/>
<path d="M87.375 145.633H92.8125V101.883H87.375V145.633ZM95.9375 126.07H102.688C108.146 126.029 111.562 123.945 112.938 119.82C113.479 118.154 113.75 116.175 113.75 113.883C113.75 106.258 110.312 102.258 103.438 101.883C103.188 101.883 102.938 101.883 102.688 101.883H95.9375V107.133H101.812C106.021 107.216 108.146 109.466 108.188 113.883C108.104 118.425 106 120.716 101.875 120.758H95.9375V126.07ZM117.438 145.633V101.883H140.188V107.258H122.875V121.133H134.312V126.57H122.875V140.258H140.188V145.633H117.438ZM144.562 145.633L152.875 108.695H153.875L156 118.383L149.938 145.633H144.562ZM154.562 138.633L155.75 133.32H162.438L155.5 101.945H160.938L170.812 145.633H165.375L163.812 138.633H154.562ZM174.812 134.32C174.812 136.737 175.708 139.091 177.5 141.383C179.917 144.383 183.167 145.904 187.25 145.945V140.57C184.375 140.57 182.292 139.3 181 136.758C180.542 135.841 180.312 135.029 180.312 134.32V113.258C180.312 111.8 180.938 110.404 182.188 109.07C183.562 107.695 185.25 106.987 187.25 106.945V101.57C182.5 101.529 178.958 103.487 176.625 107.445C175.417 109.487 174.812 111.425 174.812 113.258V134.32ZM190.312 145.945C193.646 145.945 196.5 144.675 198.875 142.133C201 139.841 202.062 137.216 202.062 134.258L196.875 133.008C196.875 133.466 196.854 133.8 196.812 134.008C196.729 134.966 196.604 135.675 196.438 136.133C196.062 137.341 195.354 138.32 194.312 139.07C193.312 139.82 192.396 140.258 191.562 140.383L190.312 140.57V145.945ZM190.312 106.945C190.312 106.945 190.917 107.091 192.125 107.383C194.208 108.258 195.646 109.716 196.438 111.758C196.604 112.258 196.729 112.925 196.812 113.758V114.758L202.062 113.383C202.062 110.216 200.75 107.383 198.125 104.883C195.708 102.675 193.104 101.57 190.312 101.57V106.945ZM206.5 145.633V101.883H211.938V120.945H217.562V126.258H211.938V145.633H206.5ZM220.688 126.258V120.945H226.25V101.883H231.75V145.633H226.25V126.258H220.688Z" fill="white"/>
<path d="M133.355 192.97C132.915 193.307 132.358 193.542 131.683 193.674C131.008 193.806 130.29 193.872 129.527 193.872C128.603 193.872 127.738 193.718 126.931 193.41C126.124 193.087 125.42 192.603 124.819 191.958C124.218 191.312 123.741 190.491 123.389 189.494C123.037 188.482 122.861 187.286 122.861 185.908C122.861 184.47 123.052 183.253 123.433 182.256C123.829 181.244 124.342 180.422 124.973 179.792C125.618 179.146 126.337 178.677 127.129 178.384C127.921 178.09 128.728 177.944 129.549 177.944C130.429 177.944 131.148 177.995 131.705 178.098C132.262 178.186 132.739 178.31 133.135 178.472L132.695 180.078C131.991 179.74 130.986 179.572 129.681 179.572C129.08 179.572 128.486 179.682 127.899 179.902C127.312 180.122 126.784 180.481 126.315 180.98C125.86 181.478 125.494 182.131 125.215 182.938C124.936 183.744 124.797 184.734 124.797 185.908C124.797 186.964 124.929 187.888 125.193 188.68C125.457 189.472 125.816 190.132 126.271 190.66C126.74 191.188 127.283 191.584 127.899 191.848C128.53 192.112 129.212 192.244 129.945 192.244C130.605 192.244 131.177 192.178 131.661 192.046C132.16 191.914 132.578 191.745 132.915 191.54L133.355 192.97ZM134.849 185.908C134.849 183.341 135.392 181.376 136.477 180.012C137.563 178.633 139.11 177.944 141.119 177.944C142.205 177.944 143.143 178.134 143.935 178.516C144.727 178.897 145.38 179.44 145.893 180.144C146.421 180.833 146.81 181.669 147.059 182.652C147.309 183.62 147.433 184.705 147.433 185.908C147.433 188.474 146.883 190.447 145.783 191.826C144.698 193.19 143.143 193.872 141.119 193.872C140.049 193.872 139.117 193.681 138.325 193.3C137.548 192.918 136.895 192.383 136.367 191.694C135.854 190.99 135.473 190.154 135.223 189.186C134.974 188.203 134.849 187.11 134.849 185.908ZM136.785 185.908C136.785 186.758 136.866 187.565 137.027 188.328C137.203 189.09 137.467 189.765 137.819 190.352C138.171 190.924 138.619 191.386 139.161 191.738C139.719 192.075 140.371 192.244 141.119 192.244C142.483 192.244 143.554 191.73 144.331 190.704C145.109 189.662 145.497 188.064 145.497 185.908C145.497 185.072 145.409 184.272 145.233 183.51C145.072 182.732 144.808 182.058 144.441 181.486C144.089 180.899 143.635 180.437 143.077 180.1C142.535 179.748 141.882 179.572 141.119 179.572C139.77 179.572 138.707 180.092 137.929 181.134C137.167 182.16 136.785 183.752 136.785 185.908ZM159.634 193.608H150.526V178.208H152.352V191.98H159.634V193.608ZM159.793 185.908C159.793 183.341 160.335 181.376 161.421 180.012C162.506 178.633 164.053 177.944 166.063 177.944C167.148 177.944 168.087 178.134 168.879 178.516C169.671 178.897 170.323 179.44 170.837 180.144C171.365 180.833 171.753 181.669 172.003 182.652C172.252 183.62 172.377 184.705 172.377 185.908C172.377 188.474 171.827 190.447 170.727 191.826C169.641 193.19 168.087 193.872 166.063 193.872C164.992 193.872 164.061 193.681 163.269 193.3C162.491 192.918 161.839 192.383 161.311 191.694C160.797 190.99 160.416 190.154 160.167 189.186C159.917 188.203 159.793 187.11 159.793 185.908ZM161.729 185.908C161.729 186.758 161.809 187.565 161.971 188.328C162.147 189.09 162.411 189.765 162.763 190.352C163.115 190.924 163.562 191.386 164.105 191.738C164.662 192.075 165.315 192.244 166.063 192.244C167.427 192.244 168.497 191.73 169.275 190.704C170.052 189.662 170.441 188.064 170.441 185.908C170.441 185.072 170.353 184.272 170.177 183.51C170.015 182.732 169.751 182.058 169.385 181.486C169.033 180.899 168.578 180.437 168.021 180.1C167.478 179.748 166.825 179.572 166.063 179.572C164.713 179.572 163.65 180.092 162.873 181.134C162.11 182.16 161.729 183.752 161.729 185.908ZM175.47 178.362C176.027 178.259 176.665 178.178 177.384 178.12C178.117 178.061 178.784 178.032 179.386 178.032C180.06 178.032 180.698 178.105 181.3 178.252C181.916 178.398 182.451 178.64 182.906 178.978C183.375 179.315 183.749 179.755 184.028 180.298C184.306 180.84 184.446 181.5 184.446 182.278C184.446 183.48 184.116 184.456 183.456 185.204C182.796 185.952 181.96 186.45 180.948 186.7L182.004 187.514L185.832 193.608H183.698L179.452 186.964L177.296 186.634V193.608H175.47V178.362ZM179.43 179.616C179.239 179.616 179.041 179.616 178.836 179.616C178.63 179.616 178.432 179.623 178.242 179.638C178.051 179.652 177.868 179.667 177.692 179.682C177.53 179.696 177.398 179.718 177.296 179.748V185.424H179.012C180.024 185.424 180.86 185.174 181.52 184.676C182.18 184.177 182.51 183.4 182.51 182.344C182.51 181.552 182.238 180.899 181.696 180.386C181.153 179.872 180.398 179.616 179.43 179.616ZM195.506 189.692C195.506 189.076 195.322 188.577 194.956 188.196C194.589 187.8 194.127 187.455 193.57 187.162C193.027 186.854 192.433 186.568 191.788 186.304C191.142 186.04 190.541 185.724 189.984 185.358C189.441 184.976 188.986 184.514 188.62 183.972C188.253 183.414 188.07 182.71 188.07 181.86C188.07 180.657 188.488 179.704 189.324 179C190.16 178.296 191.348 177.944 192.888 177.944C193.782 177.944 194.596 178.01 195.33 178.142C196.063 178.274 196.635 178.442 197.046 178.648L196.496 180.254C196.158 180.092 195.66 179.938 195 179.792C194.354 179.645 193.621 179.572 192.8 179.572C191.832 179.572 191.106 179.792 190.622 180.232C190.138 180.657 189.896 181.163 189.896 181.75C189.896 182.322 190.079 182.798 190.446 183.18C190.812 183.561 191.267 183.906 191.81 184.214C192.367 184.507 192.968 184.8 193.614 185.094C194.259 185.387 194.853 185.732 195.396 186.128C195.953 186.509 196.415 186.971 196.782 187.514C197.148 188.056 197.332 188.731 197.332 189.538C197.332 190.198 197.214 190.792 196.98 191.32C196.745 191.848 196.4 192.302 195.946 192.684C195.491 193.065 194.941 193.358 194.296 193.564C193.65 193.769 192.917 193.872 192.096 193.872C190.996 193.872 190.086 193.784 189.368 193.608C188.649 193.446 188.092 193.263 187.696 193.058L188.312 191.408C188.649 191.598 189.148 191.789 189.808 191.98C190.468 192.156 191.208 192.244 192.03 192.244C192.514 192.244 192.968 192.2 193.394 192.112C193.819 192.009 194.186 191.855 194.494 191.65C194.802 191.43 195.044 191.158 195.22 190.836C195.41 190.513 195.506 190.132 195.506 189.692ZM136.247 207.836H131.451V221.608H129.625V207.836H124.829V206.208H136.247V207.836ZM141.636 215.492L136.554 206.208H138.688L142.296 212.94L142.67 214.282H142.692L143.088 212.896L146.542 206.208H148.5L143.462 215.47V221.608H141.636V215.492ZM150.934 206.208H152.76V221.608H150.934V206.208ZM156.346 214.458H161.67V216.086H156.346V214.458ZM164.846 206.208C165.124 206.164 165.432 206.134 165.77 206.12C166.122 206.09 166.481 206.076 166.848 206.076C167.229 206.061 167.596 206.054 167.948 206.054C168.314 206.039 168.652 206.032 168.96 206.032C170.192 206.032 171.255 206.222 172.15 206.604C173.059 206.985 173.807 207.52 174.394 208.21C174.98 208.884 175.413 209.698 175.692 210.652C175.985 211.605 176.132 212.654 176.132 213.798C176.132 214.839 175.992 215.844 175.714 216.812C175.45 217.765 175.024 218.616 174.438 219.364C173.851 220.097 173.088 220.691 172.15 221.146C171.211 221.586 170.074 221.806 168.74 221.806C168.505 221.806 168.197 221.798 167.816 221.784C167.449 221.784 167.068 221.769 166.672 221.74C166.276 221.725 165.909 221.71 165.572 221.696C165.234 221.681 164.992 221.659 164.846 221.63V206.208ZM169.004 207.66C168.813 207.66 168.6 207.66 168.366 207.66C168.146 207.66 167.926 207.667 167.706 207.682C167.486 207.696 167.28 207.711 167.09 207.726C166.914 207.74 166.774 207.755 166.672 207.77V220.09C166.745 220.104 166.884 220.119 167.09 220.134C167.295 220.134 167.508 220.141 167.728 220.156C167.948 220.156 168.16 220.163 168.366 220.178C168.571 220.178 168.71 220.178 168.784 220.178C169.81 220.178 170.668 220.002 171.358 219.65C172.062 219.298 172.619 218.828 173.03 218.242C173.455 217.64 173.756 216.958 173.932 216.196C174.108 215.418 174.196 214.619 174.196 213.798C174.196 213.079 174.115 212.36 173.954 211.642C173.792 210.908 173.514 210.248 173.118 209.662C172.722 209.075 172.186 208.598 171.512 208.232C170.852 207.85 170.016 207.66 169.004 207.66ZM179.658 206.208H181.484V221.608H179.658V206.208ZM185.642 206.208H194.024V207.836H187.468V212.874H193.474V214.502H187.468V219.98H194.134V221.608H185.642V206.208Z" fill="white"/>
<line x1="71" y1="170.608" x2="250" y2="170.608" stroke="white" stroke-width="2"/>
</svg>
