<svg width="33" height="33" viewBox="0 0 35 35" fill="none" xmlns="http://www.w3.org/2000/svg">
<g clip-path="url(#clip0)">
<path d="M10.9681 22.9657H10.9697C10.971 22.9657 10.9723 22.9654 10.9736 22.9654H29.0559C29.501 22.9654 29.8924 22.6701 30.0148 22.2421L34.0041 8.27933C34.0901 7.97831 34.0298 7.65469 33.8415 7.40484C33.653 7.15498 33.3582 7.00798 33.0452 7.00798H8.66803L7.95509 3.79961C7.85354 3.34327 7.44889 3.01862 6.98138 3.01862H0.99734C0.446466 3.01862 0 3.46508 0 4.01596C0 4.56683 0.446466 5.0133 0.99734 5.0133H6.18143C6.30766 5.58183 9.59317 20.3669 9.78225 21.2175C8.72231 21.6782 7.97872 22.735 7.97872 23.9628C7.97872 25.6125 9.32098 26.9548 10.9707 26.9548H29.0559C29.6067 26.9548 30.0532 26.5083 30.0532 25.9574C30.0532 25.4066 29.6067 24.9601 29.0559 24.9601H10.9707C10.4209 24.9601 9.9734 24.5126 9.9734 23.9628C9.9734 23.4137 10.4194 22.967 10.9681 22.9657ZM31.723 9.00266L28.3034 20.9707H11.7707L9.11112 9.00266H31.723Z" fill="#FAFAFA"/>
<path d="M9.97339 29.9468C9.97339 31.5966 11.3156 32.9388 12.9654 32.9388C14.6152 32.9388 15.9574 31.5966 15.9574 29.9468C15.9574 28.297 14.6152 26.9548 12.9654 26.9548C11.3156 26.9548 9.97339 28.297 9.97339 29.9468ZM12.9654 28.9495C13.5152 28.9495 13.9628 29.397 13.9628 29.9468C13.9628 30.4966 13.5152 30.9441 12.9654 30.9441C12.4156 30.9441 11.9681 30.4966 11.9681 29.9468C11.9681 29.397 12.4156 28.9495 12.9654 28.9495Z" fill="#FAFAFA"/>
<path d="M24.0691 29.9468C24.0691 31.5966 25.4113 32.9388 27.0611 32.9388C28.7109 32.9388 30.0531 31.5966 30.0531 29.9468C30.0531 28.297 28.7109 26.9548 27.0611 26.9548C25.4113 26.9548 24.0691 28.297 24.0691 29.9468ZM27.0611 28.9495C27.6109 28.9495 28.0585 29.397 28.0585 29.9468C28.0585 30.4966 27.6109 30.9441 27.0611 30.9441C26.5113 30.9441 26.0638 30.4966 26.0638 29.9468C26.0638 29.397 26.5113 28.9495 27.0611 28.9495Z" fill="#FAFAFA"/>
</g>
<defs>
<clipPath id="clip0">
<rect width="34.0426" height="34.0426" fill="white" transform="translate(0 0.957443)"/>
</clipPath>
</defs>
</svg>
