<svg width="17" height="17" viewBox="0 0 17 17" fill="none" xmlns="http://www.w3.org/2000/svg">
<g clip-path="url(#clip0)">
<path d="M8.39 16.78C13.0164 16.78 16.78 13.0164 16.78 8.39C16.78 3.76361 13.0164 0 8.39 0C3.76361 0 0 3.76361 0 8.39C0 13.0164 3.76361 16.78 8.39 16.78ZM8.39 1.04875C12.4382 1.04875 15.7313 4.34183 15.7313 8.39C15.7313 12.4382 12.4382 15.7313 8.39 15.7313C4.34183 15.7313 1.04875 12.4382 1.04875 8.39C1.04875 4.34183 4.34183 1.04875 8.39 1.04875Z" fill="white"/>
<path d="M5.52062 9.89674L6.61691 9.42061L6.30928 9.72894C6.21069 9.82752 6.15546 9.96106 6.15546 10.0995V12.1516C6.15546 12.6214 6.72318 12.8493 7.05039 12.5221L8.15088 11.4216L10.549 12.6207C10.8595 12.7759 11.2349 12.592 11.2992 12.2452L12.6675 4.72151C12.7395 4.31669 12.341 3.98948 11.9599 4.1391L3.06934 7.61885C2.67081 7.77407 2.61768 8.31942 2.97845 8.54945L5.0298 9.85829C5.17663 9.95197 5.36191 9.96666 5.52062 9.89674ZM11.4677 5.45913L10.3931 11.3706L8.28163 10.3155C8.07747 10.2135 7.83416 10.2561 7.67685 10.4141L7.20421 10.8868V10.3183L9.3066 8.21594C9.71422 7.80833 9.25557 7.13573 8.727 7.36436L5.35911 8.82562L4.41244 8.22154L11.4677 5.45913Z" fill="white"/>
</g>
<defs>
<clipPath id="clip0">
<rect width="16.78" height="16.78" fill="white"/>
</clipPath>
</defs>
</svg>
